<?xml version="1.0" standalone="yes"?>

<svg version="1.1" viewBox="0.0 0.0 125.0 35.0" fill="none" stroke="none" stroke-linecap="square" stroke-miterlimit="10" xmlns="http://www.w3.org/2000/svg" xmlns:xlink="http://www.w3.org/1999/xlink"><clipPath id="p.0"><path d="m0 0l125.0 0l0 100.0l-125.0 0l0 -100.0z" clip-rule="nonzero"></path></clipPath><g clip-path="url(#p.0)"><path fill="#000000" fill-opacity="0.0" d="m0 0l125.28871 0l0 100.0l-125.28871 0z" fill-rule="nonzero"></path><path fill="#000000" fill-opacity="0.0" d="m-14.818897 -17.572178l153.5748 0l0 67.40157l-153.5748 0z" fill-rule="nonzero"></path><path fill="#000000" d="m10.765377 23.499695q-0.390625 -0.671875 -0.671875 -1.375q-0.265625 -0.703125 -0.34375 -1.34375q-0.078125 -0.640625 0.09375 -1.203125q0.1875 -0.578125 0.734375 -0.96875q0.421875 -0.3125 0.96875 -0.234375q0.546875 0.078125 1.171875 0.46875q0.078125 -0.78125 0.109375 -1.515625q0.046875 -0.75 0.046875 -1.296875q0 -1.046876 -0.140625 -2.218751q-0.125 -1.171875 -0.4375 -2.171875q-0.3125 -1.0 -0.828125 -1.65625q-0.5 -0.671875 -1.28125 -0.671875q-0.75 0 -1.28125 0.59375q-0.515625 0.578125 -0.875 1.546875q-0.34375048 0.953125 -0.5000005 2.140625q-0.15625 1.1875 -0.15625 2.40625q0 1.359376 0.171875 2.734376q0.171875 1.359375 0.5156255 2.453125q0.359375 1.09375 0.890625 1.765625q0.53125 0.65625 1.265625 0.65625q0.3125 0 0.546875 -0.109375zm7.5 1.59375q0.390625 0.546875 0.859375 1.390625q0.46875 0.84375 0.71875 1.71875q0.265625 0.875 0.21875 1.65625q-0.03125 0.796875 -0.65625 1.265625q-0.46875 0.34375 -1.015625 0.28125q-0.546875 -0.046875 -1.125 -0.34375q-0.5625 -0.296875 -1.15625 -0.796875q-0.578125 -0.484375 -1.125 -1.0625q-1.046875 0.90625 -2.359375 1.40625q-1.3125 0.515625 -2.90625 0.515625q-2.3906255 0 -4.1562505 -1.203125q-1.75 -1.1875 -2.90625 -3.203125q-1.1406249 -2.015625 -1.71875 -4.671875q-0.5625 -2.65625 -0.5625 -5.578125q0 -2.734376 0.609375 -5.546876q0.60937506 -2.8125 1.859375 -5.0781245q1.25 -2.265625 3.15625 -3.703125q1.921875 -1.4531251 4.5781255 -1.4531251q2.578125 0 4.3125 1.3906251q1.734375 1.375 2.765625 3.59375q1.046875 2.203125 1.484375 4.9374995q0.453125 2.734375 0.453125 5.468751q0 2.421875 -0.390625 4.625q-0.390625 2.203125 -1.171875 4.078125l0.234375 0.3125zm22.851562 -15.812501q0 2.6875 -1.25 4.84375q-1.25 2.140626 -3.3125 3.781251q0.625 0.9375 1.28125 2.1875q0.671875 1.25 1.1875 2.640625q0.53125 1.390625 0.859375 2.78125q0.34375 1.375 0.34375 2.546875q0 1.25 -0.609375 2.25q-0.609375 1.0 -2.046875 1.0q-1.21875 0 -2.09375 -1.171875q-0.875 -1.171875 -1.5625 -2.796875q-0.6875 -1.625 -1.25 -3.296875q-0.5625 -1.6875 -1.078125 -2.703125q-0.703125 0.234375 -1.375 0.53125q-0.65625 0.296875 -1.359375 0.5625q-0.03125 0.859375 -0.140625 2.375q-0.09375 1.5 -0.421875 2.984375q-0.328125 1.484375 -1.0 2.578125q-0.65625 1.09375 -1.828125 1.09375q-1.296875 0 -2.0 -1.0625q-0.703125 -1.046875 -1.0 -2.484375q-0.28125 -1.453125 -0.328125 -2.953125q-0.03125 -1.515625 -0.03125 -2.375q0 -1.828125 0.078125 -3.609375q0.078125 -1.78125 0.078125 -3.609376q0 -1.6875 -0.0625 -3.359375q-0.0625 -1.6875 -0.0625 -3.40625q0 -0.390625 0 -0.9843745q0 -0.609375 0.0625 -1.25q0.0625 -0.65625 0.140625 -1.234375q0.078125 -0.59375 0.265625 -0.9375q0.390625 -0.828125 1.78125 -1.5625q1.390625 -0.7500001 3.046875 -1.3125001q1.65625 -0.5625 3.234375 -0.890625q1.59375 -0.34375 2.375 -0.34375q1.984375 0 3.5 0.75q1.53125 0.734375 2.546875 2.015625q1.015625 1.265625 1.515625 2.921875q0.515625 1.65625 0.515625 3.4999995zm-7.21875 0.546875q0 -1.015625 -0.46875 -1.546875q-0.46875 -0.5312495 -1.53125 -0.5312495q-0.78125 0 -1.578125 0.28124952q-0.796875 0.265625 -1.46875 0.625q0.15625 3.078125 0.125 6.125q0.8125 -0.265625 1.671875 -0.6875q0.859375 -0.4375 1.578125 -1.0625q0.734375 -0.625 1.203125 -1.40625q0.46875 -0.78125 0.46875 -1.796875z" fill-rule="nonzero"></path><path fill="#ff706c" d="m48.187252 30.73407q-1.59375 0 -2.78125 -0.84375q-1.1875 -0.84375 -2.0 -2.15625q-0.8125 -1.3125 -1.21875 -2.921875q-0.40625 -1.609375 -0.40625 -3.171875q0 -1.65625 0.40625 -3.421875q0.40625 -1.765625 1.25 -3.218751q0.84375 -1.453125 2.15625 -2.375q1.3125 -0.921875 3.125 -0.921875q1.75 0 2.984375 0.953125q1.234375 0.953125 1.984375 2.375q0.75 1.421876 1.0625 3.109376q0.3125 1.6875 0.21875 3.1875q-0.09375 1.65625 -0.515625 3.34375q-0.421875 1.6875 -1.234375 3.03125q-0.8125 1.34375 -2.0625 2.1875q-1.25 0.84375 -2.96875 0.84375zm0.3125 -14.125q-0.46875 0 -0.828125 0.5q-0.359375 0.5 -0.59375 1.21875q-0.234375 0.71875 -0.359375 1.515625q-0.125 0.796875 -0.125 1.390625q0 0.75 0.140625 1.625q0.140625 0.875 0.390625 1.609375q0.25 0.734375 0.609375 1.21875q0.359375 0.484375 0.828125 0.484375q0.5 0 0.859375 -0.46875q0.359375 -0.46875 0.578125 -1.1875q0.21875 -0.71875 0.3125 -1.578125q0.09375 -0.859375 0.09375 -1.609375q0 -0.6875 -0.125 -1.515625q-0.125 -0.828125 -0.359375 -1.546875q-0.234375 -0.71875 -0.59375 -1.1875q-0.359375 -0.46875 -0.828125 -0.46875z" fill-rule="nonzero"></path><path fill="#615f8b" d="m64.2185 30.968445q-1.9843712 0 -3.4687462 -1.0625q-1.484375 -1.0625 -2.5 -2.703125q-1.015625 -1.640625 -1.53125 -3.640625q-0.5 -2.015625 -0.5 -3.96875q0 -2.078125 0.5 -4.281251q0.515625 -2.203125 1.5625 -4.015625q1.0625 -1.828125 2.703125 -2.96875q1.640625 -1.1562495 3.9062462 -1.1562495q2.1875 0 3.71875 1.1874995q1.546875 1.1875 2.484375 2.96875q0.9375 1.78125 1.328125 3.890625q0.390625 2.109376 0.28125 3.984376q-0.125 2.0625 -0.65625 4.171875q-0.515625 2.109375 -1.53125 3.796875q-1.015625 1.671875 -2.578125 2.734375q-1.5625 1.0625 -3.71875 1.0625zm0.390625 -17.671875q-0.578125 0 -1.0312462 0.625q-0.453125 0.625 -0.75 1.53125q-0.28125 0.89062595 -0.4375 1.890626q-0.15625 1.0 -0.15625 1.734375q0 0.9375 0.171875 2.03125q0.171875 1.09375 0.484375 2.015625q0.3125 0.921875 0.765625 1.53125q0.4531212 0.59375 1.0312462 0.59375q0.625 0 1.078125 -0.578125q0.453125 -0.59375 0.71875 -1.484375q0.28125 -0.90625 0.390625 -1.96875q0.125 -1.078125 0.125 -2.015625q0 -0.859375 -0.15625 -1.890625q-0.15625 -1.046875 -0.453125 -1.937501q-0.296875 -0.90625 -0.75 -1.484375q-0.4375 -0.59375 -1.03125 -0.59375z" fill-rule="nonzero"></path><path fill="#000000" d="m93.32787 24.437195q0 0.96875 -0.8125 1.828125q-0.796875 0.859375 -2.0625 1.5625q-1.265625 0.703125 -2.828125 1.234375q-1.5625 0.53125 -3.09375 0.90625q-1.515625 0.375 -2.875 0.5625q-1.34375 0.203125 -2.125 0.203125q-0.734375 0 -1.578125 -0.140625q-0.84375 -0.140625 -1.390625 -0.609375q-0.3125 -0.234375 -0.546875 -1.046875q-0.234375 -0.828125 -0.453125 -1.953125q-0.203125 -1.140625 -0.359375 -2.453125q-0.15625 -1.3125 -0.265625 -2.5625q-0.09375 -1.25 -0.15625 -2.296875q-0.046875 -1.0625 -0.046875 -1.640625q0 -0.984375 0.046875 -2.359376q0.0625 -1.390625 0.171875 -2.96875q0.125 -1.59375 0.3125 -3.234375q0.203125 -1.6406245 0.453125 -3.0937495q0.265625 -1.46875 0.625 -2.640625q0.375 -1.171875 0.8125 -1.8437501q0.734375 -1.046875 1.875 -1.046875q0.78125 0 1.328125 0.53125q0.546875 0.515625 0.875 1.3593751q0.328125 0.84375 0.5 1.875q0.1875 1.03125 0.265625 2.046875q0.078125 1.015625 0.078125 1.8749995q0 0.859375 0 1.375q0 3.046875 -0.140625 6.03125q-0.140625 2.984376 -0.140625 6.031251l0 1.53125q1.765625 -0.546875 3.828125 -1.03125q2.078125 -0.5 3.953125 -0.5q0.65625 0 1.34375 0.078125q0.6875 0.078125 1.203125 0.34375q0.53125 0.25 0.859375 0.734375q0.34375 0.484375 0.34375 1.3125z" fill-rule="nonzero"></path><path fill="#34be69" d="m107.156 24.26532q0 1.0625 -0.671875 2.078125q-0.671875 1.015625 -1.6875 1.8125q-1.015625 0.796875 -2.171875 1.28125q-1.15625 0.484375 -2.125 0.484375q-1.65625 0 -2.953125 -0.828125q-1.296875 -0.828125 -2.171875 -2.109375q-0.875 -1.28125 -1.328125 -2.828125q-0.453125 -1.546875 -0.453125 -3.015625q0 -1.5625 0.4375 -3.34375q0.4375 -1.78125 1.328125 -3.281251q0.890625 -1.5 2.25 -2.5q1.359375 -1.0 3.234375 -1.0q1.0625 0 2.03125 0.359375q0.96875 0.359375 1.6875 1.015625q0.71875 0.65625 1.15625 1.5625q0.4375 0.90625 0.4375 2.03125q0 1.468751 -0.625 2.750001q-0.625 1.28125 -1.65625 2.21875q-1.03125 0.9375 -2.375 1.515625q-1.34375 0.578125 -2.75 0.640625q0.125 0.90625 0.734375 1.3125q0.609375 0.40625 1.453125 0.40625q0.625 0 1.21875 -0.3125q0.59375 -0.3125 1.15625 -0.703125q0.5625 -0.390625 1.109375 -0.703125q0.546875 -0.3125 1.109375 -0.3125q0.625 0 1.125 0.40625q0.5 0.40625 0.5 1.0625zm-5.0625 -7.65625q0 -0.40625 -0.21875 -0.84375095q-0.21875 -0.4375 -0.6875 -0.4375q-0.6875 0 -1.15625 0.359375q-0.46875 0.35937595 -0.78125 0.90625095q-0.3125 0.546875 -0.484375 1.171875q-0.171875 0.625 -0.203125 1.15625q0.4375 -0.09375 1.046875 -0.25q0.609375 -0.15625 1.15625 -0.421875q0.546875 -0.265625 0.9375 -0.671875q0.390625 -0.40625 0.390625 -0.96875z" fill-rule="nonzero"></path><path fill="#000000" d="m122.20287 15.218444q-0.546875 0.03125 -0.9375 -0.09375q-0.390625 -0.140625 -0.78125 -0.296875q-0.359375 -0.15625 -0.71875 -0.296875q-0.34375 -0.140625 -0.765625 -0.09375q-0.78125 0.03125 -1.390625 0.421875q-0.609375 0.390625 -1.09375 0.984375q-0.484375 0.57812595 -0.84375 1.312501q-0.34375 0.71875 -0.546875 1.421875q-0.109375 0.46875 -0.171875 1.421875q-0.0625 0.953125 -0.0625 2.046875q-0.03125 1.140625 -0.03125 2.15625q0 1.015625 -0.078125 1.59375q-0.046875 0.625 -0.203125 1.46875q-0.15625 0.84375 -0.484375 1.59375q-0.328125 0.734375 -0.875 1.234375q-0.546875 0.515625 -1.40625 0.515625q-0.671875 0 -1.15625 -0.390625q-0.484375 -0.390625 -0.828125 -1.03125q-0.328125 -0.65625 -0.546875 -1.515625q-0.203125 -0.859375 -0.328125 -1.75q-0.109375 -0.9375 -0.171875 -1.875q-0.0625 -0.9375 -0.078125 -1.78125q-0.015625 -0.84375 0 -1.546875q0.015625 -0.703125 0.015625 -1.125q-0.03125 -1.375 -0.140625 -2.75q-0.09375 -1.390626 -0.09375 -2.765626q0 -0.859375 0.078125 -1.90625q0.078125 -1.0625 0.421875 -1.96875q0.359375 -0.921875 1.046875 -1.546875q0.6875 -0.625 1.890625 -0.625q0.671875 0 1.140625 0.4375q0.46875 0.421875 0.75 1.046875q0.296875 0.625 0.453125 1.328125q0.15625 0.703125 0.203125 1.28125q0.9375 -1.515625 2.109375 -2.46875q1.171875 -0.96875 3.046875 -1.046875q0.9375 -0.03125 1.84375 0.1875q0.921875 0.203125 1.6875 0.703125q0.765625 0.484375 1.25 1.265625q0.484375 0.78125 0.53125 1.828125q0.078125 1.25 -0.75 1.921875q-0.8125 0.65625 -1.984375 0.703125z" fill-rule="nonzero"></path></g></svg>

